<mxfile host="app.diagrams.net" agent="Mozilla/5.0 (Windows NT 10.0; Win64; x64) AppleWebKit/537.36 (KHTML, like Gecko) Chrome/129.0.0.0 Safari/537.36" version="24.7.16">
  <diagram name="Seite-1" id="rAwoswsKqMgd6mMcUeBU">
    <mxGraphModel dx="778" dy="1075" grid="1" gridSize="10" guides="1" tooltips="1" connect="1" arrows="1" fold="1" page="1" pageScale="1" pageWidth="827" pageHeight="1169" math="0" shadow="0">
      <root>
        <mxCell id="0" />
        <mxCell id="1" parent="0" />
        <mxCell id="_CmcxGCt4wRFDWlJ2N3x-1" value="Account" style="swimlane;whiteSpace=wrap;html=1;" vertex="1" parent="1">
          <mxGeometry x="160" y="80" width="510" height="500" as="geometry" />
        </mxCell>
        <mxCell id="_CmcxGCt4wRFDWlJ2N3x-34" value="" style="rounded=0;whiteSpace=wrap;html=1;movable=0;resizable=0;rotatable=0;deletable=0;editable=0;locked=1;connectable=0;" vertex="1" parent="_CmcxGCt4wRFDWlJ2N3x-1">
          <mxGeometry x="-40" y="-20" width="610" height="830" as="geometry" />
        </mxCell>
        <mxCell id="_CmcxGCt4wRFDWlJ2N3x-5" value="Create" style="ellipse;whiteSpace=wrap;html=1;" vertex="1" parent="_CmcxGCt4wRFDWlJ2N3x-1">
          <mxGeometry x="20" y="50" width="80" height="60" as="geometry" />
        </mxCell>
        <mxCell id="_CmcxGCt4wRFDWlJ2N3x-7" value="Log in /&lt;br&gt;Log out" style="ellipse;whiteSpace=wrap;html=1;" vertex="1" parent="_CmcxGCt4wRFDWlJ2N3x-1">
          <mxGeometry x="110" y="50" width="80" height="60" as="geometry" />
        </mxCell>
        <mxCell id="_CmcxGCt4wRFDWlJ2N3x-35" value="Document Wallet" style="swimlane;whiteSpace=wrap;html=1;" vertex="1" parent="_CmcxGCt4wRFDWlJ2N3x-1">
          <mxGeometry width="200" height="200" as="geometry" />
        </mxCell>
        <mxCell id="_CmcxGCt4wRFDWlJ2N3x-6" value="Edit" style="ellipse;whiteSpace=wrap;html=1;" vertex="1" parent="_CmcxGCt4wRFDWlJ2N3x-35">
          <mxGeometry x="10" y="120" width="80" height="60" as="geometry" />
        </mxCell>
        <mxCell id="_CmcxGCt4wRFDWlJ2N3x-8" value="Delete" style="ellipse;whiteSpace=wrap;html=1;" vertex="1" parent="_CmcxGCt4wRFDWlJ2N3x-35">
          <mxGeometry x="100" y="120" width="80" height="60" as="geometry" />
        </mxCell>
        <mxCell id="_CmcxGCt4wRFDWlJ2N3x-38" style="edgeStyle=orthogonalEdgeStyle;rounded=0;orthogonalLoop=1;jettySize=auto;html=1;exitX=0.5;exitY=1;exitDx=0;exitDy=0;entryX=0.23;entryY=0.265;entryDx=0;entryDy=0;entryPerimeter=0;" edge="1" parent="_CmcxGCt4wRFDWlJ2N3x-1" source="_CmcxGCt4wRFDWlJ2N3x-35" target="_CmcxGCt4wRFDWlJ2N3x-34">
          <mxGeometry relative="1" as="geometry" />
        </mxCell>
        <mxCell id="_CmcxGCt4wRFDWlJ2N3x-10" value="Generate graph" style="ellipse;whiteSpace=wrap;html=1;" vertex="1" parent="_CmcxGCt4wRFDWlJ2N3x-1">
          <mxGeometry x="334" y="120" width="80" height="60" as="geometry" />
        </mxCell>
        <mxCell id="_CmcxGCt4wRFDWlJ2N3x-13" value="Log meal" style="ellipse;whiteSpace=wrap;html=1;" vertex="1" parent="_CmcxGCt4wRFDWlJ2N3x-1">
          <mxGeometry x="430" y="30" width="80" height="60" as="geometry" />
        </mxCell>
        <mxCell id="_CmcxGCt4wRFDWlJ2N3x-9" value="Log sugar" style="ellipse;whiteSpace=wrap;html=1;" vertex="1" parent="_CmcxGCt4wRFDWlJ2N3x-1">
          <mxGeometry x="254" y="30" width="80" height="60" as="geometry" />
        </mxCell>
        <mxCell id="_CmcxGCt4wRFDWlJ2N3x-55" value="" style="endArrow=classic;html=1;rounded=0;dashed=1;exitX=0.5;exitY=1;exitDx=0;exitDy=0;entryX=0.5;entryY=1;entryDx=0;entryDy=0;" edge="1" parent="_CmcxGCt4wRFDWlJ2N3x-1" target="_CmcxGCt4wRFDWlJ2N3x-9">
          <mxGeometry relative="1" as="geometry">
            <mxPoint x="350" y="120" as="sourcePoint" />
            <mxPoint x="310" y="-40" as="targetPoint" />
          </mxGeometry>
        </mxCell>
        <mxCell id="_CmcxGCt4wRFDWlJ2N3x-60" value="use" style="edgeLabel;html=1;align=center;verticalAlign=middle;resizable=0;points=[];" vertex="1" connectable="0" parent="_CmcxGCt4wRFDWlJ2N3x-55">
          <mxGeometry x="-0.0867" y="-1" relative="1" as="geometry">
            <mxPoint as="offset" />
          </mxGeometry>
        </mxCell>
        <mxCell id="_CmcxGCt4wRFDWlJ2N3x-12" value="Log macros" style="ellipse;whiteSpace=wrap;html=1;" vertex="1" parent="_CmcxGCt4wRFDWlJ2N3x-1">
          <mxGeometry x="340" y="30" width="80" height="60" as="geometry" />
        </mxCell>
        <mxCell id="_CmcxGCt4wRFDWlJ2N3x-14" value="Alerts" style="ellipse;whiteSpace=wrap;html=1;" vertex="1" parent="_CmcxGCt4wRFDWlJ2N3x-1">
          <mxGeometry x="420" y="120" width="80" height="60" as="geometry" />
        </mxCell>
        <mxCell id="_CmcxGCt4wRFDWlJ2N3x-23" value="Delete post" style="ellipse;whiteSpace=wrap;html=1;" vertex="1" parent="_CmcxGCt4wRFDWlJ2N3x-1">
          <mxGeometry x="430" y="280" width="80" height="60" as="geometry" />
        </mxCell>
        <mxCell id="_CmcxGCt4wRFDWlJ2N3x-20" value="Edit comment" style="ellipse;whiteSpace=wrap;html=1;" vertex="1" parent="_CmcxGCt4wRFDWlJ2N3x-1">
          <mxGeometry x="250" y="365" width="80" height="60" as="geometry" />
        </mxCell>
        <mxCell id="_CmcxGCt4wRFDWlJ2N3x-25" value="Delete Comment" style="ellipse;whiteSpace=wrap;html=1;" vertex="1" parent="_CmcxGCt4wRFDWlJ2N3x-1">
          <mxGeometry x="430" y="365" width="80" height="60" as="geometry" />
        </mxCell>
        <mxCell id="_CmcxGCt4wRFDWlJ2N3x-73" value="Create post" style="ellipse;whiteSpace=wrap;html=1;" vertex="1" parent="_CmcxGCt4wRFDWlJ2N3x-1">
          <mxGeometry x="340" y="365" width="80" height="60" as="geometry" />
        </mxCell>
        <mxCell id="_CmcxGCt4wRFDWlJ2N3x-76" value="" style="endArrow=classic;html=1;rounded=0;dashed=1;entryX=0;entryY=0;entryDx=0;entryDy=0;exitX=0.629;exitY=0.022;exitDx=0;exitDy=0;exitPerimeter=0;" edge="1" parent="_CmcxGCt4wRFDWlJ2N3x-1" source="_CmcxGCt4wRFDWlJ2N3x-20" target="_CmcxGCt4wRFDWlJ2N3x-73">
          <mxGeometry relative="1" as="geometry">
            <mxPoint x="314" y="292" as="sourcePoint" />
            <mxPoint x="362" y="299" as="targetPoint" />
          </mxGeometry>
        </mxCell>
        <mxCell id="_CmcxGCt4wRFDWlJ2N3x-77" value="use" style="edgeLabel;html=1;align=center;verticalAlign=middle;resizable=0;points=[];" vertex="1" connectable="0" parent="_CmcxGCt4wRFDWlJ2N3x-76">
          <mxGeometry x="-0.0867" y="-1" relative="1" as="geometry">
            <mxPoint x="-2" as="offset" />
          </mxGeometry>
        </mxCell>
        <mxCell id="_CmcxGCt4wRFDWlJ2N3x-3" value="Tracking" style="swimlane;whiteSpace=wrap;html=1;" vertex="1" parent="1">
          <mxGeometry x="400" y="80" width="280" height="200" as="geometry" />
        </mxCell>
        <mxCell id="_CmcxGCt4wRFDWlJ2N3x-4" value="Document Wallet" style="swimlane;whiteSpace=wrap;html=1;" vertex="1" parent="1">
          <mxGeometry x="440" y="640" width="200" height="200" as="geometry" />
        </mxCell>
        <mxCell id="_CmcxGCt4wRFDWlJ2N3x-28" value="store medical docs" style="ellipse;whiteSpace=wrap;html=1;" vertex="1" parent="_CmcxGCt4wRFDWlJ2N3x-4">
          <mxGeometry x="60" y="30" width="80" height="60" as="geometry" />
        </mxCell>
        <mxCell id="_CmcxGCt4wRFDWlJ2N3x-31" value="generate pdf" style="ellipse;whiteSpace=wrap;html=1;" vertex="1" parent="_CmcxGCt4wRFDWlJ2N3x-4">
          <mxGeometry x="60" y="130" width="80" height="60" as="geometry" />
        </mxCell>
        <mxCell id="_CmcxGCt4wRFDWlJ2N3x-80" value="" style="endArrow=classic;html=1;rounded=0;dashed=1;exitX=0.5;exitY=0;exitDx=0;exitDy=0;entryX=0.5;entryY=1;entryDx=0;entryDy=0;" edge="1" parent="_CmcxGCt4wRFDWlJ2N3x-4" source="_CmcxGCt4wRFDWlJ2N3x-31" target="_CmcxGCt4wRFDWlJ2N3x-28">
          <mxGeometry relative="1" as="geometry">
            <mxPoint x="24" y="-460" as="sourcePoint" />
            <mxPoint x="80" y="-430" as="targetPoint" />
          </mxGeometry>
        </mxCell>
        <mxCell id="_CmcxGCt4wRFDWlJ2N3x-81" value="use" style="edgeLabel;html=1;align=center;verticalAlign=middle;resizable=0;points=[];" vertex="1" connectable="0" parent="_CmcxGCt4wRFDWlJ2N3x-80">
          <mxGeometry x="-0.0867" y="-1" relative="1" as="geometry">
            <mxPoint as="offset" />
          </mxGeometry>
        </mxCell>
        <mxCell id="_CmcxGCt4wRFDWlJ2N3x-18" value="Content and Community" style="swimlane;whiteSpace=wrap;html=1;" vertex="1" parent="1">
          <mxGeometry x="400" y="320" width="280" height="280" as="geometry" />
        </mxCell>
        <mxCell id="_CmcxGCt4wRFDWlJ2N3x-22" value="Create post" style="ellipse;whiteSpace=wrap;html=1;" vertex="1" parent="_CmcxGCt4wRFDWlJ2N3x-18">
          <mxGeometry x="100" y="40" width="80" height="60" as="geometry" />
        </mxCell>
        <mxCell id="_CmcxGCt4wRFDWlJ2N3x-26" value="Like comment" style="ellipse;whiteSpace=wrap;html=1;" vertex="1" parent="_CmcxGCt4wRFDWlJ2N3x-18">
          <mxGeometry x="100" y="205" width="80" height="60" as="geometry" />
        </mxCell>
        <mxCell id="_CmcxGCt4wRFDWlJ2N3x-19" value="Edit post" style="ellipse;whiteSpace=wrap;html=1;" vertex="1" parent="_CmcxGCt4wRFDWlJ2N3x-18">
          <mxGeometry x="10" y="40" width="80" height="60" as="geometry" />
        </mxCell>
        <mxCell id="_CmcxGCt4wRFDWlJ2N3x-68" value="" style="endArrow=classic;html=1;rounded=0;dashed=1;exitX=0.679;exitY=0.039;exitDx=0;exitDy=0;entryX=0;entryY=0;entryDx=0;entryDy=0;exitPerimeter=0;" edge="1" parent="_CmcxGCt4wRFDWlJ2N3x-18" source="_CmcxGCt4wRFDWlJ2N3x-19" target="_CmcxGCt4wRFDWlJ2N3x-22">
          <mxGeometry relative="1" as="geometry">
            <mxPoint x="74" y="-130" as="sourcePoint" />
            <mxPoint x="130" y="-100" as="targetPoint" />
          </mxGeometry>
        </mxCell>
        <mxCell id="_CmcxGCt4wRFDWlJ2N3x-69" value="use" style="edgeLabel;html=1;align=center;verticalAlign=middle;resizable=0;points=[];" vertex="1" connectable="0" parent="_CmcxGCt4wRFDWlJ2N3x-68">
          <mxGeometry x="-0.0867" y="-1" relative="1" as="geometry">
            <mxPoint x="-2" as="offset" />
          </mxGeometry>
        </mxCell>
        <mxCell id="_CmcxGCt4wRFDWlJ2N3x-21" value="Like post" style="ellipse;whiteSpace=wrap;html=1;" vertex="1" parent="_CmcxGCt4wRFDWlJ2N3x-18">
          <mxGeometry x="10" y="205" width="80" height="60" as="geometry" />
        </mxCell>
        <object label="Visitor" Visitor="" id="_CmcxGCt4wRFDWlJ2N3x-39">
          <mxCell style="shape=umlActor;verticalLabelPosition=bottom;verticalAlign=top;html=1;outlineConnect=0;" vertex="1" parent="1">
            <mxGeometry x="30" y="140" width="30" height="60" as="geometry" />
          </mxCell>
        </object>
        <mxCell id="_CmcxGCt4wRFDWlJ2N3x-40" value="User" style="shape=umlActor;verticalLabelPosition=bottom;verticalAlign=top;html=1;outlineConnect=0;" vertex="1" parent="1">
          <mxGeometry x="30" y="380" width="30" height="60" as="geometry" />
        </mxCell>
        <mxCell id="_CmcxGCt4wRFDWlJ2N3x-44" value="Admin" style="shape=umlActor;verticalLabelPosition=bottom;verticalAlign=top;html=1;outlineConnect=0;" vertex="1" parent="1">
          <mxGeometry x="770" y="140" width="30" height="60" as="geometry" />
        </mxCell>
        <mxCell id="_CmcxGCt4wRFDWlJ2N3x-45" value="" style="endArrow=none;html=1;rounded=0;entryX=0;entryY=0.5;entryDx=0;entryDy=0;" edge="1" parent="1" source="_CmcxGCt4wRFDWlJ2N3x-39" target="_CmcxGCt4wRFDWlJ2N3x-5">
          <mxGeometry width="50" height="50" relative="1" as="geometry">
            <mxPoint x="320" y="540" as="sourcePoint" />
            <mxPoint x="90" y="250" as="targetPoint" />
          </mxGeometry>
        </mxCell>
        <mxCell id="_CmcxGCt4wRFDWlJ2N3x-46" value="" style="endArrow=none;html=1;rounded=0;entryX=0;entryY=0.5;entryDx=0;entryDy=0;" edge="1" parent="1" target="_CmcxGCt4wRFDWlJ2N3x-35">
          <mxGeometry width="50" height="50" relative="1" as="geometry">
            <mxPoint x="60" y="400" as="sourcePoint" />
            <mxPoint x="370" y="490" as="targetPoint" />
          </mxGeometry>
        </mxCell>
        <mxCell id="_CmcxGCt4wRFDWlJ2N3x-47" value="" style="endArrow=none;html=1;rounded=0;entryX=0;entryY=0.75;entryDx=0;entryDy=0;" edge="1" parent="1" target="_CmcxGCt4wRFDWlJ2N3x-3">
          <mxGeometry width="50" height="50" relative="1" as="geometry">
            <mxPoint x="60" y="400" as="sourcePoint" />
            <mxPoint x="370" y="490" as="targetPoint" />
          </mxGeometry>
        </mxCell>
        <mxCell id="_CmcxGCt4wRFDWlJ2N3x-48" value="" style="endArrow=none;html=1;rounded=0;entryX=0;entryY=0.5;entryDx=0;entryDy=0;" edge="1" parent="1" target="_CmcxGCt4wRFDWlJ2N3x-18">
          <mxGeometry width="50" height="50" relative="1" as="geometry">
            <mxPoint x="60" y="400" as="sourcePoint" />
            <mxPoint x="370" y="490" as="targetPoint" />
          </mxGeometry>
        </mxCell>
        <mxCell id="_CmcxGCt4wRFDWlJ2N3x-49" value="" style="endArrow=none;html=1;rounded=0;exitX=0;exitY=0.5;exitDx=0;exitDy=0;" edge="1" parent="1" source="_CmcxGCt4wRFDWlJ2N3x-4">
          <mxGeometry width="50" height="50" relative="1" as="geometry">
            <mxPoint x="110" y="540" as="sourcePoint" />
            <mxPoint x="60" y="400" as="targetPoint" />
          </mxGeometry>
        </mxCell>
        <mxCell id="_CmcxGCt4wRFDWlJ2N3x-50" value="" style="endArrow=none;html=1;rounded=0;entryX=0;entryY=0.3333333333333333;entryDx=0;entryDy=0;entryPerimeter=0;exitX=0.5;exitY=0;exitDx=0;exitDy=0;" edge="1" parent="1" source="_CmcxGCt4wRFDWlJ2N3x-23" target="_CmcxGCt4wRFDWlJ2N3x-44">
          <mxGeometry width="50" height="50" relative="1" as="geometry">
            <mxPoint x="490" y="620" as="sourcePoint" />
            <mxPoint x="760" y="170" as="targetPoint" />
          </mxGeometry>
        </mxCell>
        <mxCell id="_CmcxGCt4wRFDWlJ2N3x-51" value="" style="endArrow=none;html=1;rounded=0;" edge="1" parent="1" source="_CmcxGCt4wRFDWlJ2N3x-25">
          <mxGeometry width="50" height="50" relative="1" as="geometry">
            <mxPoint x="490" y="620" as="sourcePoint" />
            <mxPoint x="770" y="160" as="targetPoint" />
          </mxGeometry>
        </mxCell>
        <mxCell id="_CmcxGCt4wRFDWlJ2N3x-52" value="" style="endArrow=none;html=1;rounded=0;entryX=1;entryY=0.5;entryDx=0;entryDy=0;exitX=0;exitY=0.3333333333333333;exitDx=0;exitDy=0;exitPerimeter=0;" edge="1" parent="1" source="_CmcxGCt4wRFDWlJ2N3x-44" target="_CmcxGCt4wRFDWlJ2N3x-8">
          <mxGeometry width="50" height="50" relative="1" as="geometry">
            <mxPoint x="490" y="750" as="sourcePoint" />
            <mxPoint x="540" y="700" as="targetPoint" />
            <Array as="points">
              <mxPoint x="660" y="190" />
              <mxPoint x="560" y="190" />
              <mxPoint x="370" y="200" />
            </Array>
          </mxGeometry>
        </mxCell>
        <mxCell id="_CmcxGCt4wRFDWlJ2N3x-62" value="" style="endArrow=classic;html=1;rounded=0;dashed=1;" edge="1" parent="1">
          <mxGeometry relative="1" as="geometry">
            <mxPoint x="530" y="200" as="sourcePoint" />
            <mxPoint x="530" y="170" as="targetPoint" />
          </mxGeometry>
        </mxCell>
        <mxCell id="_CmcxGCt4wRFDWlJ2N3x-63" value="use" style="edgeLabel;html=1;align=center;verticalAlign=middle;resizable=0;points=[];" vertex="1" connectable="0" parent="_CmcxGCt4wRFDWlJ2N3x-62">
          <mxGeometry x="-0.0867" y="-1" relative="1" as="geometry">
            <mxPoint as="offset" />
          </mxGeometry>
        </mxCell>
        <mxCell id="_CmcxGCt4wRFDWlJ2N3x-64" value="" style="endArrow=classic;html=1;rounded=0;dashed=1;exitX=0.696;exitY=0.083;exitDx=0;exitDy=0;exitPerimeter=0;" edge="1" parent="1" source="_CmcxGCt4wRFDWlJ2N3x-10">
          <mxGeometry relative="1" as="geometry">
            <mxPoint x="550" y="200" as="sourcePoint" />
            <mxPoint x="620" y="170" as="targetPoint" />
          </mxGeometry>
        </mxCell>
        <mxCell id="_CmcxGCt4wRFDWlJ2N3x-65" value="use" style="edgeLabel;html=1;align=center;verticalAlign=middle;resizable=0;points=[];" vertex="1" connectable="0" parent="_CmcxGCt4wRFDWlJ2N3x-64">
          <mxGeometry x="-0.0867" y="-1" relative="1" as="geometry">
            <mxPoint as="offset" />
          </mxGeometry>
        </mxCell>
        <mxCell id="_CmcxGCt4wRFDWlJ2N3x-78" value="" style="endArrow=classic;html=1;rounded=0;dashed=1;exitX=1;exitY=0;exitDx=0;exitDy=0;entryX=1;entryY=0;entryDx=0;entryDy=0;" edge="1" parent="1" target="_CmcxGCt4wRFDWlJ2N3x-73">
          <mxGeometry relative="1" as="geometry">
            <mxPoint x="610" y="450" as="sourcePoint" />
            <mxPoint x="530" y="390" as="targetPoint" />
          </mxGeometry>
        </mxCell>
        <mxCell id="_CmcxGCt4wRFDWlJ2N3x-79" value="use" style="edgeLabel;html=1;align=center;verticalAlign=middle;resizable=0;points=[];" vertex="1" connectable="0" parent="_CmcxGCt4wRFDWlJ2N3x-78">
          <mxGeometry x="-0.0867" y="-1" relative="1" as="geometry">
            <mxPoint x="-2" as="offset" />
          </mxGeometry>
        </mxCell>
        <mxCell id="_CmcxGCt4wRFDWlJ2N3x-71" value="" style="endArrow=classic;html=1;rounded=0;dashed=1;entryX=1;entryY=0;entryDx=0;entryDy=0;exitX=0.288;exitY=0.067;exitDx=0;exitDy=0;exitPerimeter=0;" edge="1" parent="1" source="_CmcxGCt4wRFDWlJ2N3x-23" target="_CmcxGCt4wRFDWlJ2N3x-22">
          <mxGeometry relative="1" as="geometry">
            <mxPoint x="474" y="372" as="sourcePoint" />
            <mxPoint x="522" y="379" as="targetPoint" />
          </mxGeometry>
        </mxCell>
        <mxCell id="_CmcxGCt4wRFDWlJ2N3x-72" value="use" style="edgeLabel;html=1;align=center;verticalAlign=middle;resizable=0;points=[];" vertex="1" connectable="0" parent="_CmcxGCt4wRFDWlJ2N3x-71">
          <mxGeometry x="-0.0867" y="-1" relative="1" as="geometry">
            <mxPoint x="-2" as="offset" />
          </mxGeometry>
        </mxCell>
      </root>
    </mxGraphModel>
  </diagram>
</mxfile>
